<svg width="402" height="874" viewBox="0 0 402 874" fill="none" xmlns="http://www.w3.org/2000/svg">
<g clip-path="url(#clip0_3635_2)">
<rect width="402" height="874" fill="#10B981"/>
<circle cx="45" cy="45" r="225" fill="#0DAE79"/>
<circle cx="359.5" cy="437.5" r="180.5" fill="#0DAE79"/>
<rect x="43" y="655" width="316" height="41" rx="12" fill="#10B981"/>
<path d="M139.793 723.742C139.793 723.914 139.707 724 139.535 724H138.302C138.13 724 138.044 723.914 138.044 723.742V716.568H135.644C135.472 716.568 135.386 716.482 135.386 716.31V715.194C135.386 715.022 135.472 714.935 135.644 714.935H142.199C142.371 714.935 142.457 715.022 142.457 715.194V716.31C142.457 716.482 142.371 716.568 142.199 716.568H139.793V723.742ZM146.163 724.187C145.428 724.187 144.759 724.006 144.157 723.645C143.559 723.284 143.088 722.796 142.744 722.181C142.4 721.561 142.228 720.888 142.228 720.161C142.228 719.426 142.389 718.748 142.712 718.129C143.034 717.51 143.479 717.019 144.047 716.658C144.619 716.292 145.256 716.11 145.957 716.11C146.714 716.11 147.374 716.284 147.938 716.632C148.505 716.981 148.94 717.462 149.241 718.077C149.542 718.688 149.692 719.378 149.692 720.148C149.692 720.217 149.688 720.338 149.679 720.51C149.667 720.652 149.576 720.723 149.408 720.723H143.918C143.996 721.118 144.146 721.465 144.37 721.761C144.593 722.058 144.867 722.288 145.189 722.452C145.516 722.611 145.862 722.69 146.228 722.69C146.86 722.69 147.432 722.495 147.944 722.103C147.996 722.056 148.054 722.032 148.118 722.032C148.191 722.032 148.254 722.071 148.305 722.148L148.841 722.91C148.884 722.974 148.905 723.03 148.905 723.077C148.905 723.151 148.871 723.215 148.802 723.271C148.436 723.563 148.032 723.789 147.589 723.948C147.146 724.108 146.671 724.187 146.163 724.187ZM148.047 719.426C147.94 718.849 147.705 718.396 147.344 718.065C146.987 717.733 146.542 717.568 146.008 717.568C145.669 717.568 145.353 717.645 145.06 717.8C144.772 717.951 144.527 718.166 144.325 718.445C144.127 718.725 143.989 719.052 143.912 719.426H148.047ZM154.875 716.11C155.365 716.11 155.868 716.254 156.384 716.542C156.479 716.598 156.526 716.671 156.526 716.761C156.526 716.804 156.513 716.849 156.488 716.897L155.984 717.839C155.933 717.933 155.866 717.981 155.784 717.981C155.733 717.981 155.683 717.966 155.636 717.935C155.292 717.751 154.963 717.658 154.649 717.658C154.344 717.658 154.055 717.748 153.784 717.929C153.513 718.11 153.294 718.374 153.126 718.723C152.959 719.067 152.875 719.473 152.875 719.942V723.742C152.875 723.914 152.789 724 152.617 724H151.475C151.303 724 151.217 723.914 151.217 723.742V716.497C151.217 716.325 151.303 716.239 151.475 716.239H152.371C152.526 716.239 152.621 716.314 152.655 716.465L152.81 717.168C153.025 716.931 153.225 716.74 153.41 716.594C153.599 716.443 153.812 716.325 154.049 716.239C154.29 716.153 154.565 716.11 154.875 716.11ZM166.462 716.071C167.043 716.071 167.551 716.202 167.985 716.465C168.419 716.727 168.755 717.11 168.991 717.613C169.228 718.112 169.346 718.712 169.346 719.413V723.742C169.346 723.914 169.26 724 169.088 724H167.953C167.781 724 167.695 723.914 167.695 723.742V719.503C167.695 719.125 167.63 718.796 167.501 718.516C167.372 718.237 167.187 718.022 166.946 717.871C166.705 717.72 166.419 717.645 166.088 717.645C165.783 717.645 165.499 717.729 165.237 717.897C164.979 718.06 164.77 718.282 164.611 718.561C164.456 718.837 164.374 719.133 164.366 719.452V723.742C164.366 723.914 164.28 724 164.108 724H162.966C162.794 724 162.708 723.914 162.708 723.742V719.503C162.708 718.931 162.566 718.48 162.282 718.148C161.998 717.813 161.607 717.645 161.108 717.645C160.789 717.645 160.497 717.733 160.23 717.91C159.968 718.082 159.759 718.314 159.604 718.606C159.454 718.895 159.379 719.204 159.379 719.535V723.742C159.379 723.914 159.293 724 159.121 724H157.979C157.807 724 157.721 723.914 157.721 723.742V716.497C157.721 716.325 157.807 716.239 157.979 716.239H158.875C159.035 716.239 159.129 716.314 159.159 716.465L159.25 716.974C159.538 716.682 159.878 716.458 160.269 716.303C160.665 716.148 161.067 716.071 161.475 716.071C162.017 716.071 162.495 716.185 162.908 716.413C163.321 716.641 163.65 716.97 163.895 717.4C164.17 716.974 164.54 716.647 165.004 716.419C165.473 716.187 165.959 716.071 166.462 716.071ZM173.638 724.187C173.062 724.187 172.524 724.088 172.025 723.89C171.526 723.692 171.068 723.415 170.651 723.058C170.582 723.002 170.548 722.94 170.548 722.871C170.548 722.815 170.572 722.757 170.619 722.697L171.154 722.013C171.215 721.94 171.277 721.903 171.341 721.903C171.389 721.903 171.447 721.927 171.516 721.974C171.808 722.185 172.139 722.359 172.509 722.497C172.879 722.63 173.24 722.697 173.593 722.697C173.928 722.697 174.202 722.617 174.412 722.458C174.623 722.295 174.728 722.082 174.728 721.819C174.728 721.643 174.675 721.495 174.567 721.374C174.46 721.249 174.294 721.138 174.07 721.039C173.851 720.94 173.541 720.828 173.141 720.703C172.479 720.497 171.939 720.211 171.522 719.845C171.105 719.475 170.896 718.976 170.896 718.348C170.896 717.957 170.995 717.591 171.193 717.252C171.391 716.908 171.69 716.632 172.09 716.426C172.494 716.215 172.989 716.11 173.574 716.11C173.987 716.11 174.41 716.189 174.845 716.348C175.279 716.503 175.658 716.729 175.98 717.026C176.04 717.082 176.07 717.142 176.07 717.206C176.07 717.271 176.042 717.331 175.987 717.387L175.303 718.097C175.242 718.157 175.18 718.187 175.116 718.187C175.068 718.187 175.01 718.163 174.941 718.116C174.748 717.97 174.524 717.852 174.27 717.761C174.021 717.667 173.769 717.619 173.516 717.619C173.184 717.619 172.928 717.692 172.748 717.839C172.572 717.985 172.483 718.17 172.483 718.394C172.483 718.544 172.531 718.675 172.625 718.787C172.724 718.899 172.881 719.006 173.096 719.11C173.316 719.213 173.615 719.323 173.993 719.439C174.475 719.589 174.883 719.761 175.219 719.955C175.554 720.144 175.821 720.389 176.019 720.69C176.217 720.991 176.316 721.361 176.316 721.8C176.316 722.217 176.208 722.609 175.993 722.974C175.778 723.34 175.466 723.634 175.058 723.858C174.653 724.077 174.18 724.187 173.638 724.187ZM184.067 724.181C183.401 724.181 182.805 724.054 182.28 723.8C181.755 723.546 181.347 723.202 181.054 722.768C180.766 722.333 180.622 721.86 180.622 721.348C180.622 720.841 180.747 720.387 180.996 719.987C181.246 719.587 181.613 719.288 182.099 719.09C181.738 718.871 181.476 718.609 181.312 718.303C181.149 717.998 181.067 717.639 181.067 717.226C181.067 716.731 181.179 716.297 181.403 715.923C181.626 715.544 181.94 715.252 182.345 715.045C182.749 714.839 183.218 714.735 183.751 714.735C184.263 714.735 184.717 714.828 185.112 715.013C185.508 715.198 185.822 715.465 186.054 715.813C186.287 716.157 186.42 716.563 186.454 717.032C186.463 717.114 186.444 717.178 186.396 717.226C186.353 717.273 186.289 717.297 186.203 717.297H185.132C185.054 717.297 184.994 717.277 184.951 717.239C184.908 717.2 184.876 717.14 184.854 717.058C184.798 716.804 184.669 716.606 184.467 716.465C184.265 716.323 184.018 716.252 183.725 716.252C183.398 716.252 183.136 716.342 182.938 716.523C182.745 716.703 182.648 716.938 182.648 717.226C182.648 717.514 182.73 717.755 182.893 717.948C183.061 718.138 183.347 718.292 183.751 718.413C183.906 718.465 183.977 718.566 183.964 718.716L183.854 719.51C183.841 719.66 183.753 719.742 183.59 719.755C183.164 719.798 182.833 719.946 182.596 720.2C182.36 720.454 182.241 720.77 182.241 721.148C182.241 721.441 182.314 721.703 182.461 721.935C182.611 722.163 182.822 722.344 183.093 722.477C183.364 722.606 183.674 722.671 184.022 722.671C184.366 722.671 184.676 722.589 184.951 722.426C185.226 722.258 185.444 722.022 185.603 721.716C185.762 721.406 185.846 721.049 185.854 720.645C185.557 720.568 185.351 720.525 185.235 720.516C185.201 720.512 185.149 720.51 185.08 720.51C184.977 720.51 184.88 720.523 184.79 720.548C184.631 720.561 184.54 720.49 184.519 720.335L184.577 719.548C184.56 719.389 184.628 719.299 184.783 719.277C184.955 719.222 185.14 719.194 185.338 719.194C185.428 719.194 185.519 719.2 185.609 719.213C185.811 719.234 186.145 719.305 186.609 719.426C186.871 719.495 187.093 719.548 187.274 719.587C187.459 719.622 187.611 719.639 187.732 719.639C187.917 719.639 188.076 719.591 188.209 719.497C188.342 719.402 188.454 719.256 188.545 719.058C188.601 718.933 188.678 718.871 188.777 718.871C188.82 718.871 188.852 718.875 188.874 718.884L189.822 719.135C189.882 719.153 189.93 719.183 189.964 719.226C189.998 719.265 190.016 719.31 190.016 719.361C190.016 719.378 190.011 719.409 190.003 719.452C189.865 719.938 189.633 720.329 189.306 720.626C188.979 720.918 188.581 721.065 188.112 721.065C187.945 721.065 187.71 721.032 187.409 720.968C187.379 721.613 187.218 722.178 186.925 722.665C186.637 723.151 186.246 723.525 185.751 723.787C185.256 724.049 184.695 724.181 184.067 724.181ZM198.66 724.155C197.791 724.155 196.998 723.946 196.279 723.529C195.565 723.112 195.002 722.544 194.589 721.826C194.176 721.108 193.97 720.318 193.97 719.458C193.97 718.594 194.176 717.804 194.589 717.09C195.002 716.376 195.565 715.813 196.279 715.4C196.998 714.983 197.791 714.774 198.66 714.774C199.202 714.774 199.716 714.858 200.202 715.026C200.688 715.189 201.129 715.422 201.525 715.723C201.598 715.783 201.634 715.845 201.634 715.91C201.634 715.966 201.611 716.024 201.563 716.084L200.86 717.013C200.8 717.086 200.735 717.123 200.666 717.123C200.611 717.123 200.555 717.101 200.499 717.058C200.228 716.869 199.935 716.72 199.621 716.613C199.312 716.505 198.991 716.452 198.66 716.452C198.14 716.452 197.656 716.585 197.208 716.852C196.761 717.114 196.404 717.475 196.137 717.935C195.875 718.396 195.744 718.905 195.744 719.465C195.744 720.019 195.875 720.527 196.137 720.987C196.404 721.447 196.761 721.811 197.208 722.077C197.656 722.344 198.14 722.477 198.66 722.477C199.008 722.477 199.329 722.428 199.621 722.329C199.914 722.226 200.208 722.065 200.505 721.845C200.565 721.806 200.621 721.787 200.673 721.787C200.75 721.787 200.817 721.824 200.873 721.897L201.57 722.826C201.617 722.895 201.641 722.955 201.641 723.006C201.641 723.067 201.608 723.123 201.544 723.174C201.14 723.484 200.692 723.725 200.202 723.897C199.716 724.069 199.202 724.155 198.66 724.155ZM206.336 724.187C205.609 724.187 204.936 724.009 204.316 723.652C203.701 723.29 203.213 722.802 202.852 722.187C202.491 721.568 202.31 720.892 202.31 720.161C202.31 719.422 202.491 718.742 202.852 718.123C203.217 717.503 203.71 717.013 204.329 716.652C204.949 716.29 205.622 716.11 206.349 716.11C207.08 716.11 207.755 716.29 208.374 716.652C208.994 717.013 209.484 717.503 209.845 718.123C210.211 718.742 210.394 719.422 210.394 720.161C210.394 720.892 210.211 721.568 209.845 722.187C209.48 722.802 208.985 723.29 208.361 723.652C207.742 724.009 207.067 724.187 206.336 724.187ZM206.355 722.6C206.781 722.6 207.177 722.492 207.542 722.277C207.908 722.062 208.198 721.77 208.413 721.4C208.628 721.026 208.736 720.611 208.736 720.155C208.736 719.699 208.628 719.284 208.413 718.91C208.198 718.531 207.908 718.234 207.542 718.019C207.177 717.804 206.781 717.697 206.355 717.697C205.925 717.697 205.527 717.804 205.161 718.019C204.796 718.234 204.506 718.531 204.291 718.91C204.075 719.284 203.968 719.699 203.968 720.155C203.968 720.611 204.075 721.026 204.291 721.4C204.506 721.77 204.796 722.062 205.161 722.277C205.527 722.492 205.925 722.6 206.355 722.6ZM215.997 716.103C216.625 716.103 217.176 716.243 217.649 716.523C218.122 716.798 218.487 717.191 218.746 717.703C219.004 718.211 219.133 718.802 219.133 719.477V723.742C219.133 723.914 219.047 724 218.875 724H217.72C217.548 724 217.462 723.914 217.462 723.742V719.658C217.462 719.254 217.386 718.901 217.236 718.6C217.085 718.295 216.872 718.06 216.597 717.897C216.322 717.733 216.001 717.652 215.636 717.652C215.266 717.652 214.922 717.74 214.604 717.916C214.29 718.092 214.04 718.331 213.855 718.632C213.67 718.929 213.578 719.254 213.578 719.606V723.742C213.578 723.914 213.492 724 213.32 724H212.178C212.006 724 211.92 723.914 211.92 723.742V716.497C211.92 716.325 212.006 716.239 212.178 716.239H213.075C213.229 716.239 213.324 716.314 213.358 716.465L213.507 717.206C213.799 716.884 214.174 716.619 214.629 716.413C215.085 716.206 215.541 716.103 215.997 716.103ZM226.515 714.168C226.515 713.996 226.601 713.91 226.773 713.91H227.934C228.106 713.91 228.192 713.996 228.192 714.168V723.742C228.192 723.914 228.106 724 227.934 724H227.012C226.861 724 226.769 723.925 226.734 723.774L226.644 723.065C226.369 723.404 226.035 723.673 225.644 723.871C225.253 724.065 224.807 724.161 224.309 724.161C223.59 724.161 222.937 723.983 222.347 723.626C221.762 723.265 221.3 722.776 220.96 722.161C220.62 721.546 220.45 720.869 220.45 720.129C220.45 719.394 220.62 718.718 220.96 718.103C221.3 717.488 221.764 717.002 222.354 716.645C222.943 716.288 223.595 716.11 224.309 716.11C224.777 716.11 225.197 716.196 225.567 716.368C225.937 716.535 226.253 716.77 226.515 717.071V714.168ZM224.334 722.574C224.769 722.574 225.16 722.471 225.509 722.265C225.861 722.054 226.137 721.766 226.334 721.4C226.537 721.03 226.638 720.615 226.638 720.155C226.638 719.695 226.539 719.277 226.341 718.903C226.143 718.529 225.87 718.234 225.521 718.019C225.173 717.804 224.782 717.697 224.347 717.697C223.917 717.697 223.532 717.804 223.192 718.019C222.853 718.23 222.586 718.523 222.392 718.897C222.203 719.271 222.109 719.69 222.109 720.155C222.109 720.619 222.201 721.034 222.386 721.4C222.575 721.766 222.84 722.054 223.18 722.265C223.519 722.471 223.904 722.574 224.334 722.574ZM230.494 715.155C230.322 715.155 230.236 715.069 230.236 714.897V713.826C230.236 713.654 230.322 713.568 230.494 713.568H231.649C231.821 713.568 231.907 713.654 231.907 713.826V714.897C231.907 715.069 231.821 715.155 231.649 715.155H230.494ZM231.901 723.742C231.901 723.914 231.815 724 231.643 724H230.501C230.329 724 230.243 723.914 230.243 723.742V716.497C230.243 716.325 230.329 716.239 230.501 716.239H231.643C231.815 716.239 231.901 716.325 231.901 716.497V723.742ZM235.783 723.742C235.783 723.914 235.697 724 235.525 724H234.383C234.211 724 234.125 723.914 234.125 723.742V717.781H233.319C233.147 717.781 233.061 717.695 233.061 717.523V716.497C233.061 716.325 233.147 716.239 233.319 716.239H234.119V714.871C234.119 714.712 234.196 714.617 234.351 714.587L235.506 714.374C235.523 714.37 235.545 714.368 235.57 714.368C235.639 714.368 235.693 714.389 235.732 714.432C235.77 714.475 235.79 714.533 235.79 714.606V716.239H237.183C237.355 716.239 237.441 716.325 237.441 716.497V717.523C237.441 717.695 237.355 717.781 237.183 717.781H235.783V723.742ZM238.732 715.155C238.56 715.155 238.474 715.069 238.474 714.897V713.826C238.474 713.654 238.56 713.568 238.732 713.568H239.887C240.059 713.568 240.145 713.654 240.145 713.826V714.897C240.145 715.069 240.059 715.155 239.887 715.155H238.732ZM240.139 723.742C240.139 723.914 240.053 724 239.881 724H238.739C238.567 724 238.481 723.914 238.481 723.742V716.497C238.481 716.325 238.567 716.239 238.739 716.239H239.881C240.053 716.239 240.139 716.325 240.139 716.497V723.742ZM245.699 724.187C244.972 724.187 244.299 724.009 243.68 723.652C243.065 723.29 242.576 722.802 242.215 722.187C241.854 721.568 241.673 720.892 241.673 720.161C241.673 719.422 241.854 718.742 242.215 718.123C242.581 717.503 243.073 717.013 243.693 716.652C244.312 716.29 244.985 716.11 245.712 716.11C246.443 716.11 247.118 716.29 247.738 716.652C248.357 717.013 248.847 717.503 249.209 718.123C249.574 718.742 249.757 719.422 249.757 720.161C249.757 720.892 249.574 721.568 249.209 722.187C248.843 722.802 248.348 723.29 247.725 723.652C247.105 724.009 246.43 724.187 245.699 724.187ZM245.718 722.6C246.144 722.6 246.54 722.492 246.905 722.277C247.271 722.062 247.561 721.77 247.776 721.4C247.991 721.026 248.099 720.611 248.099 720.155C248.099 719.699 247.991 719.284 247.776 718.91C247.561 718.531 247.271 718.234 246.905 718.019C246.54 717.804 246.144 717.697 245.718 717.697C245.288 717.697 244.89 717.804 244.525 718.019C244.159 718.234 243.869 718.531 243.654 718.91C243.439 719.284 243.331 719.699 243.331 720.155C243.331 720.611 243.439 721.026 243.654 721.4C243.869 721.77 244.159 722.062 244.525 722.277C244.89 722.492 245.288 722.6 245.718 722.6ZM255.36 716.103C255.988 716.103 256.539 716.243 257.012 716.523C257.485 716.798 257.851 717.191 258.109 717.703C258.367 718.211 258.496 718.802 258.496 719.477V723.742C258.496 723.914 258.41 724 258.238 724H257.083C256.911 724 256.825 723.914 256.825 723.742V719.658C256.825 719.254 256.75 718.901 256.599 718.6C256.449 718.295 256.236 718.06 255.96 717.897C255.685 717.733 255.365 717.652 254.999 717.652C254.629 717.652 254.285 717.74 253.967 717.916C253.653 718.092 253.403 718.331 253.219 718.632C253.034 718.929 252.941 719.254 252.941 719.606V723.742C252.941 723.914 252.855 724 252.683 724H251.541C251.369 724 251.283 723.914 251.283 723.742V716.497C251.283 716.325 251.369 716.239 251.541 716.239H252.438C252.593 716.239 252.687 716.314 252.722 716.465L252.87 717.206C253.163 716.884 253.537 716.619 253.993 716.413C254.449 716.206 254.905 716.103 255.36 716.103ZM262.794 724.187C262.218 724.187 261.68 724.088 261.182 723.89C260.683 723.692 260.225 723.415 259.807 723.058C259.739 723.002 259.704 722.94 259.704 722.871C259.704 722.815 259.728 722.757 259.775 722.697L260.311 722.013C260.371 721.94 260.433 721.903 260.498 721.903C260.545 721.903 260.603 721.927 260.672 721.974C260.964 722.185 261.295 722.359 261.665 722.497C262.035 722.63 262.397 722.697 262.749 722.697C263.085 722.697 263.358 722.617 263.569 722.458C263.779 722.295 263.885 722.082 263.885 721.819C263.885 721.643 263.831 721.495 263.723 721.374C263.616 721.249 263.45 721.138 263.227 721.039C263.007 720.94 262.698 720.828 262.298 720.703C261.635 720.497 261.095 720.211 260.678 719.845C260.261 719.475 260.052 718.976 260.052 718.348C260.052 717.957 260.151 717.591 260.349 717.252C260.547 716.908 260.846 716.632 261.246 716.426C261.65 716.215 262.145 716.11 262.73 716.11C263.143 716.11 263.566 716.189 264.001 716.348C264.435 716.503 264.814 716.729 265.136 717.026C265.197 717.082 265.227 717.142 265.227 717.206C265.227 717.271 265.199 717.331 265.143 717.387L264.459 718.097C264.399 718.157 264.336 718.187 264.272 718.187C264.225 718.187 264.166 718.163 264.098 718.116C263.904 717.97 263.68 717.852 263.427 717.761C263.177 717.667 262.926 717.619 262.672 717.619C262.341 717.619 262.085 717.692 261.904 717.839C261.728 717.985 261.64 718.17 261.64 718.394C261.64 718.544 261.687 718.675 261.782 718.787C261.88 718.899 262.037 719.006 262.252 719.11C262.472 719.213 262.771 719.323 263.149 719.439C263.631 719.589 264.04 719.761 264.375 719.955C264.711 720.144 264.977 720.389 265.175 720.69C265.373 720.991 265.472 721.361 265.472 721.8C265.472 722.217 265.364 722.609 265.149 722.974C264.934 723.34 264.622 723.634 264.214 723.858C263.809 724.077 263.336 724.187 262.794 724.187Z" fill="#10B981"/>
</g>
<defs>
<clipPath id="clip0_3635_2">
<rect width="402" height="874" fill="white"/>
</clipPath>
</defs>
</svg>
